<svg width="100" height="100" viewBox="0 0 100 100" fill="none" xmlns="http://www.w3.org/2000/svg">
<path d="M29.2969 36.9141C28.2188 36.9141 27.3438 37.7891 27.3438 38.8672C27.3438 39.9453 28.2188 40.8203 29.2969 40.8203C30.375 40.8203 31.25 39.9453 31.25 38.8672C31.25 37.7891 30.375 36.9141 29.2969 36.9141Z" fill="#07609F"/>
<path d="M98.0469 84.375H91.0156V9.76562C91.0156 4.38086 86.6348 0 81.25 0H9.76562C4.38086 0 0 4.38086 0 9.76562V17.5781C0 18.6566 0.874609 19.5312 1.95312 19.5312H15.625V90.2344C15.625 95.6191 20.0059 100 25.3906 100H90.2344C95.6191 100 100 95.6191 100 90.2344V86.3281C100 85.2496 99.1254 84.375 98.0469 84.375ZM15.625 15.625H3.90625V9.76562C3.90625 6.53477 6.53477 3.90625 9.76562 3.90625C11.3297 3.90625 12.8008 4.51602 13.908 5.62305C15.0152 6.73047 15.625 8.20156 15.625 9.76562V15.625ZM31.25 86.3281V90.2344C31.25 93.4652 28.6215 96.0938 25.3906 96.0938C22.1598 96.0938 19.5312 93.4652 19.5312 90.2344V17.5781V9.76562C19.5312 7.62422 18.8445 5.58809 17.5771 3.90625H81.25C84.4809 3.90625 87.1094 6.53477 87.1094 9.76562V84.375H79.2969V77.4777C81.7891 75.2568 83.2031 72.1307 83.2031 68.75C83.2031 62.2883 77.9461 57.0312 71.4844 57.0312C68.0217 57.0312 64.9064 58.542 62.7592 60.9375H29.2969C28.2184 60.9375 27.3438 61.8121 27.3438 62.8906C27.3438 63.9691 28.2184 64.8438 29.2969 64.8438H60.4375C60.0039 66.0664 59.7656 67.3807 59.7656 68.75C59.7656 70.107 59.9953 71.4227 60.4287 72.6562H29.2969C28.2184 72.6562 27.3438 73.5309 27.3438 74.6094C27.3438 75.6879 28.2184 76.5625 29.2969 76.5625H61.7188C62.026 76.5625 62.3156 76.4895 62.5742 76.3631C62.9121 76.7559 63.2789 77.1275 63.6719 77.4777V84.375H33.2031C32.1246 84.375 31.25 85.2496 31.25 86.3281ZM71.4844 76.5625C69.7797 76.5625 68.1611 76.023 66.8031 75.0027C66.801 75.001 66.7988 74.9994 66.7965 74.9979C64.8107 73.5066 63.6719 71.2297 63.6719 68.75C63.6719 64.4422 67.1766 60.9375 71.4844 60.9375C75.7922 60.9375 79.2969 64.4422 79.2969 68.75C79.2969 71.2301 78.1576 73.5074 76.1695 74.9998C74.8107 76.0221 73.1906 76.5625 71.4844 76.5625ZM75.3906 79.8016V88.7684L72.5678 86.8865C71.9117 86.449 71.0572 86.449 70.401 86.8865L67.5781 88.7684V79.8014C68.8191 80.2404 70.1336 80.4688 71.4844 80.4688C72.8354 80.4688 74.1498 80.2406 75.3906 79.8016ZM96.0938 90.2344C96.0938 93.4652 93.4652 96.0938 90.2344 96.0938H33.1979C34.4268 94.4604 35.1562 92.4313 35.1562 90.2344V88.2812H63.6719V92.418C63.6719 93.1383 64.0684 93.8 64.7033 94.1398C65.3387 94.4801 66.1092 94.4424 66.7084 94.043L71.4844 90.859L76.2604 94.043C76.5871 94.2609 76.9648 94.3711 77.3439 94.3711C77.6598 94.3711 77.9766 94.2945 78.2654 94.1398C78.9004 93.8 79.2969 93.1381 79.2969 92.418V88.2812H96.0938V90.2344Z" fill="#07609F"/>
<path d="M61.7188 11.7188H41.0156C39.9371 11.7188 39.0625 12.5934 39.0625 13.6719C39.0625 14.7504 39.9371 15.625 41.0156 15.625H61.7188C62.7973 15.625 63.6719 14.7504 63.6719 13.6719C63.6719 12.5934 62.7973 11.7188 61.7188 11.7188Z" fill="#07609F"/>
<path d="M77.3438 36.9141H37.1094C36.0309 36.9141 35.1562 37.7887 35.1562 38.8672C35.1562 39.9457 36.0309 40.8203 37.1094 40.8203H77.3438C78.4223 40.8203 79.2969 39.9457 79.2969 38.8672C79.2969 37.7887 78.4223 36.9141 77.3438 36.9141Z" fill="#07609F"/>
<path d="M77.3438 49.2188H29.2969C28.2184 49.2188 27.3438 50.0934 27.3438 51.1719C27.3438 52.2504 28.2184 53.125 29.2969 53.125H77.3438C78.4223 53.125 79.2969 52.2504 79.2969 51.1719C79.2969 50.0934 78.4223 49.2188 77.3438 49.2188Z" fill="#07609F"/>
<path d="M77.3438 24.0234H29.2969C28.2184 24.0234 27.3438 24.898 27.3438 25.9766C27.3438 27.0551 28.2184 27.9297 29.2969 27.9297H77.3438C78.4223 27.9297 79.2969 27.0551 79.2969 25.9766C79.2969 24.898 78.4223 24.0234 77.3438 24.0234Z" fill="#07609F"/>
</svg>
