<svg width="100" height="100" viewBox="0 0 100 100" fill="none" xmlns="http://www.w3.org/2000/svg">
<g clip-path="url(#clip0)">
<path d="M23.0032 34.0519C22.2414 33.2902 21.0032 33.2902 20.2416 34.0519C19.478 34.8156 19.478 36.0519 20.2416 36.8136C21.0034 37.5773 22.2416 37.5773 23.0032 36.8136C23.7666 36.0519 23.7666 34.8156 23.0032 34.0519Z" fill="#0B6FA7"/>
<path d="M49.453 87.445C50.3142 86.2786 50.7796 84.8734 50.7796 83.3958C50.7796 79.6267 47.7132 76.5601 43.9438 76.5601H10.7418C8.91506 76.5601 7.19845 77.271 5.90802 78.5618C4.617 79.8524 3.90606 81.5691 3.90606 83.3958C3.90606 84.9093 4.40138 86.3089 5.23712 87.4427C2.12715 89.0779 0 92.3396 0 96.0906V98.0437C0 99.1224 0.874611 99.9968 1.95313 99.9968H52.7325C53.811 99.9968 54.6857 99.1224 54.6857 98.0437V96.0906C54.6857 92.3413 52.5607 89.081 49.453 87.445ZM8.66994 81.3235C9.22287 80.7704 9.95881 80.4659 10.7418 80.4659H43.9438C45.5593 80.4659 46.8733 81.7802 46.8733 83.3954C46.8733 84.1786 46.5686 84.9144 46.0155 85.4675C45.4626 86.0206 44.7267 86.3251 43.9436 86.3251H10.7418C9.12639 86.3251 7.81232 85.0109 7.81232 83.3956C7.81232 82.6126 8.11681 81.8767 8.66994 81.3235ZM3.90606 96.0906C3.90606 92.8599 6.53458 90.2314 9.76525 90.2314H10.7418H43.9438H44.9204C48.1511 90.2314 50.7796 92.8599 50.7796 96.0906H3.90606Z" fill="#0B6FA7"/>
<path d="M98.1824 82.0564C97.5191 81.0285 96.7277 80.1195 95.8298 79.3546L86.7038 71.3951C86.6328 71.288 86.5503 71.1865 86.456 71.0921C86.2974 70.9337 86.1177 70.8101 85.9267 70.7175L80.4077 65.904L54.8628 43.6206C55.9085 42.5274 56.4843 41.0979 56.4843 39.5778C56.4843 38.0118 55.8747 36.5401 54.7667 35.4323C54.2835 34.9497 53.7343 34.5702 53.1474 34.2923L55.5106 31.929C56.1712 32.1046 56.8499 32.1944 57.5292 32.1944C59.5294 32.1942 61.5298 31.4329 63.0524 29.9102C64.5286 28.4342 65.3415 26.4723 65.3415 24.3858C65.3415 22.2993 64.5286 20.3373 63.0526 18.8614L46.4807 2.28985C45.0048 0.813869 43.0426 0.000976562 40.9555 0.000976562C38.8694 0.000976562 36.9079 0.813869 35.4321 2.28985C33.3922 4.3297 32.7207 7.22599 33.4133 9.83185L9.83418 33.4108C9.18262 33.2376 8.50469 33.1462 7.81211 33.1462C5.72461 33.1462 3.76347 33.9585 2.28866 35.4331C-0.757435 38.4792 -0.757435 43.4356 2.28866 46.4819L18.8604 63.0538C20.3836 64.5769 22.3842 65.3384 24.3848 65.3384C26.3856 65.3384 28.3862 64.5769 29.9094 63.0538C31.9493 61.0138 32.6208 58.1177 31.9282 55.5118L34.2866 53.1532C34.57 53.745 34.9545 54.2911 35.4323 54.7687C36.5389 55.8753 38.0102 56.4849 39.5758 56.4849C41.0944 56.4849 42.5233 55.9101 43.618 54.8655L70.8263 86.1261C70.9013 86.2433 70.9888 86.3549 71.0911 86.4572C71.1261 86.4922 71.1632 86.524 71.2001 86.5556L79.3077 95.8709C79.5093 96.1088 79.7247 96.3428 79.9484 96.5664C82.1751 98.7924 85.1163 100 88.2042 100C88.7486 100 89.298 99.9629 89.8482 99.8867C93.5257 99.3777 96.7041 97.1777 98.5677 93.85C100.609 90.2029 100.457 85.5726 98.1824 82.0564ZM38.1944 5.05196C38.9325 4.31388 39.9133 3.90723 40.9557 3.90723C41.9995 3.90723 42.9809 4.31388 43.7188 5.05196L60.2907 21.6237C61.0288 22.3618 61.4353 23.3428 61.4353 24.386C61.4353 25.4291 61.0288 26.4102 60.2905 27.1483C58.7681 28.6711 56.2903 28.6711 54.7679 27.1483L38.1954 10.5758C38.195 10.5754 38.1948 10.5752 38.1944 10.5748C36.6715 9.05217 36.6715 6.57462 38.1944 5.05196ZM27.1473 60.2917C25.6243 61.8148 23.1455 61.815 21.6225 60.2917L5.05078 43.72C3.52753 42.1968 3.52753 39.7186 5.05078 38.1952C5.7875 37.4583 6.76836 37.0524 7.81211 37.0524C8.85567 37.0524 9.83594 37.4581 10.5725 38.1944L27.1471 54.769C28.6702 56.2915 28.6702 58.7692 27.1473 60.2917ZM35.3704 46.5456L29.9092 52.0069L13.3358 35.4335L35.4321 13.3367L52.0054 29.9102L46.5343 35.3815C46.5165 35.3983 46.4991 35.4147 46.4803 35.4333L35.4377 46.4761C35.4149 46.4985 35.3928 46.522 35.3704 46.5456ZM42.3442 50.62C42.3403 50.6239 42.3366 50.6276 42.3327 50.6315L40.9573 52.0069C40.5883 52.3757 40.0979 52.5788 39.5756 52.5788C39.0536 52.5788 38.5629 52.3757 38.1942 52.0067C37.8249 51.6376 37.6215 51.1466 37.6215 50.6241C37.6215 50.1128 37.8167 49.6317 38.1708 49.2688L49.2647 38.1749C50.0251 37.4354 51.2544 37.4446 52.0057 38.1952C52.3749 38.5643 52.5782 39.0553 52.5782 39.5778C52.5782 40.0999 52.3755 40.5895 52.0056 40.9585L50.6382 42.3259C50.6288 42.335 50.6194 42.3444 50.6102 42.3538L42.3442 50.62ZM46.3887 52.0995L52.097 46.3913L76.2654 67.4724L67.4462 76.2917L46.3887 52.0995ZM70.0167 79.2453L79.2158 70.046L82.1663 72.6197L72.5872 82.199L70.0167 79.2453ZM95.1597 91.9418C93.8992 94.1924 91.7681 95.6777 89.3128 96.0176C86.8632 96.3566 84.4564 95.5498 82.7099 93.8041C82.5597 93.6541 82.416 93.4976 82.282 93.339C82.2757 93.3316 82.2695 93.3242 82.263 93.317L75.1575 85.1525L85.1167 75.1931L93.271 82.3058C93.2771 82.3113 93.2834 82.3166 93.2898 82.322C93.9002 82.841 94.4418 83.4642 94.9013 84.1763C96.3783 86.4586 96.4818 89.5797 95.1597 91.9418Z" fill="#0B6FA7"/>
<path d="M36.8134 20.2415C36.0505 19.4788 34.8142 19.4788 34.0513 20.2415L25.7645 28.5282C25.0018 29.2909 25.0018 30.5276 25.7645 31.2901C26.146 31.6716 26.6458 31.8622 27.1456 31.8622C27.6454 31.8622 28.1452 31.6714 28.5266 31.2901L36.8134 23.0034C37.5761 22.2409 37.5761 21.0043 36.8134 20.2415Z" fill="#0B6FA7"/>
</g>
<defs>
<clipPath id="clip0">
<rect width="100" height="100" fill="white"/>
</clipPath>
</defs>
</svg>
