<svg width="512" height="512" viewBox="0 0 512 512" fill="none" xmlns="http://www.w3.org/2000/svg">
<path d="M345.999 449C340.479 449 335.999 453.48 335.999 459C335.999 464.52 340.479 469 345.999 469C351.519 469 355.999 464.52 355.999 459C355.999 453.48 351.519 449 345.999 449Z" fill="white"/>
<path d="M440.428 359.785C430.243 344.803 415.954 333.36 399.106 326.691L325.749 297.66C344.932 278.998 355.999 253.273 355.999 226C355.999 215.217 354.313 204.715 350.986 194.659C354.04 192.901 355.999 189.625 355.999 186V155.361L373.452 120.454L390.471 111.945C393.86 110.251 395.999 106.788 395.999 103.001V73C395.999 68.696 393.245 64.875 389.161 63.513L360.723 54.034L292.035 2.027C290.298 0.712 288.178 0 285.999 0H225.999C223.819 0 221.7 0.712 219.963 2.027L151.275 54.033L122.837 63.512C118.753 64.873 115.999 68.695 115.999 72.999V102.999C115.999 106.787 118.139 110.249 121.527 111.943L138.546 120.452L155.999 155.359V186C155.999 189.625 157.956 192.9 161.011 194.659C157.682 204.712 155.999 215.212 155.999 226C155.999 253.272 167.065 278.996 186.241 297.652L112.878 326.692C96.033 333.359 81.747 344.803 71.564 359.785C61.381 374.765 56 392.258 56 410.37V502C56 507.523 60.478 512 66 512H245.987C245.995 512 246.002 512.001 246.01 512.001C246.017 512.001 246.025 512 246.032 512H265.969C265.976 512 265.984 512.001 265.991 512.001C265.999 512.001 266.006 512 266.014 512H446.001C451.523 512 456.001 507.523 456.001 502V410.38C455.999 392.264 450.615 374.769 440.428 359.785ZM357.173 331.605L295.999 432.95V402.67C295.999 396.212 293.866 389.817 289.999 384.67L272.348 361.134C280.558 355.775 285.999 346.514 285.999 336V321.403C293.448 319.068 300.567 315.879 307.274 311.858L357.173 331.605ZM154.943 108.528C153.975 106.593 152.406 105.023 150.47 104.056L135.998 96.82V80.208L159.16 72.487C160.194 72.142 161.165 71.631 162.034 70.973L229.357 20H282.64L349.962 70.973C350.831 71.631 351.802 72.142 352.836 72.487L375.998 80.208V96.82L361.526 104.056C359.59 105.024 358.021 106.593 357.053 108.528L339.818 143H172.179L154.943 108.528ZM175.999 163H335.999V178.758L309.848 187.359C292.392 193.093 274.238 196 255.888 196C246.693 196 237.442 195.259 228.392 193.798C219.36 192.34 210.34 190.135 201.59 187.247L182.275 180.855C181.415 179.852 180.343 179.002 179.08 178.385C178.082 177.898 177.043 177.6 175.999 177.462V163ZM175.999 226C175.999 217.442 177.328 209.117 179.94 201.148L195.314 206.237C205.074 209.458 215.13 211.916 225.205 213.543C235.305 215.174 245.629 216.001 255.889 216.001C276.362 216.001 296.617 212.758 316.094 206.36L332.054 201.113C334.672 209.094 336 217.433 336 226.001C336 252.542 322.897 277.257 300.931 292.197C300.776 292.294 300.627 292.4 300.477 292.505C292.331 297.974 283.354 301.85 273.786 304.02C262.202 306.651 249.8 306.651 238.212 304.02C228.59 301.838 219.554 297.926 211.347 292.389C189.213 277.478 175.999 252.66 175.999 226ZM265.999 325.495V336C265.999 341.514 261.512 346 255.999 346C253.331 346 250.82 344.959 248.931 343.069C247.04 341.179 245.999 338.668 245.999 336V325.495C249.316 325.825 252.654 326 255.999 326C259.344 326 262.682 325.825 265.999 325.495ZM204.714 311.848C211.43 315.875 218.552 319.067 225.999 321.402V336C225.999 344.01 229.12 351.543 234.789 357.212C236.284 358.706 237.911 360.018 239.639 361.148L222.004 384.663C218.132 389.817 215.999 396.212 215.999 402.67V432.954L154.825 331.597L204.714 311.848ZM75.999 492V410.37C75.999 381.471 93.364 355.925 120.238 345.288L135.969 339.061L216.608 472.668L228.28 492H75.999ZM275.998 466.083L260.355 492H251.642L235.998 466.09V402.67C235.998 400.517 236.706 398.389 237.998 396.67L255.998 372.668L274.003 396.677C275.29 398.389 275.998 400.517 275.998 402.67V466.083ZM283.716 492L376.03 339.068L391.749 345.289C418.63 355.928 435.999 381.478 435.999 410.38V492H283.716Z" fill="white"/>
<path d="M255.999 43C233.943 43 215.999 60.944 215.999 83C215.999 105.056 233.943 123 255.999 123C278.055 123 295.999 105.056 295.999 83C295.999 60.944 278.055 43 255.999 43ZM255.999 103C244.971 103 235.999 94.028 235.999 83C235.999 71.972 244.97 63 255.999 63C267.027 63 275.999 71.972 275.999 83C275.999 94.028 267.027 103 255.999 103Z" fill="white"/>
<path d="M405.999 449H385.999C380.477 449 375.999 453.477 375.999 459C375.999 464.523 380.477 469 385.999 469H405.999C411.521 469 415.999 464.523 415.999 459C415.999 453.477 411.521 449 405.999 449Z" fill="white"/>
</svg>
