<svg width="98" height="61" viewBox="0 0 98 61" fill="none" xmlns="http://www.w3.org/2000/svg">
<g id="Logo" clip-path="url(#clip0)">
<g id="Group 14">
<g id="Rectangle 2">
<mask id="mask0" mask-type="alpha" maskUnits="userSpaceOnUse" x="-16" y="-24" width="158" height="70">
<path id="Vector 1" d="M62 41L69 45.5H113.5L141.5 -16.5L-1.5 -23.5L-16 31L12 44H16V41H50.5H62Z" fill="#C4C4C4"/>
</mask>
<g mask="url(#mask0)">
<path id="Rectangle 2_2" d="M21.6942 6.5H77.6942C87.6353 6.5 95.6942 14.5589 95.6942 24.5C95.6942 34.4411 87.6353 42.5 77.6942 42.5H21.6942C11.753 42.5 3.69415 34.4411 3.69415 24.5C3.69415 14.5589 11.753 6.5 21.6942 6.5Z" fill="white" fill-opacity="0.21" stroke="black"/>
</g>
</g>
</g>
<path id="M." d="M14 55.4688C12.6875 55.4688 12.0312 55.1042 12.0312 54.375C12.0312 53.625 12.4688 53.25 13.3438 53.25C14.6562 53.25 15.5833 53.0521 16.125 52.6562C17.1875 51.8854 17.8125 50.5625 18 48.6875C18.0417 48.25 18.0833 47.5833 18.125 46.6875C18.1875 45.7917 18.25 44.75 18.3125 43.5625C18.3958 42.3542 18.4688 41.0312 18.5312 39.5938C18.5938 38.1354 18.6562 36.6458 18.7188 35.125C18.8021 33.5833 18.875 32.0417 18.9375 30.5C19 28.9583 19.0521 27.4896 19.0938 26.0938C19.1979 22.6146 19.25 20.4167 19.25 19.5C19.25 18.5833 19.1771 17.8646 19.0312 17.3438C18.9062 16.8229 18.7188 16.3958 18.4688 16.0625C18.0104 15.4792 17.2708 15.1146 16.25 14.9688C14.4583 14.7188 13.5625 14.3333 13.5625 13.8125C13.5625 13.4583 13.6875 13.1771 13.9375 12.9688C14.2083 12.7396 14.5521 12.625 14.9688 12.625L19.875 13.0625L22.625 12.9375C23.125 12.9375 23.5417 13.1562 23.875 13.5938C24.2083 14.0104 24.5833 14.6354 25 15.4688L40.125 46.8125C40.4792 46 40.9479 44.9271 41.5312 43.5938C42.1146 42.2604 42.75 40.7812 43.4375 39.1562C44.1458 37.5312 44.8958 35.8125 45.6875 34C46.4792 32.1875 47.2604 30.3854 48.0312 28.5938C48.8021 26.8021 49.5417 25.0833 50.25 23.4375C50.9583 21.7917 51.5833 20.3333 52.125 19.0625C52.6667 17.7708 53.1146 16.7188 53.4688 15.9062C53.8229 15.0938 54.0625 14.5208 54.1875 14.1875C54.3333 13.8333 54.6042 13.5104 55 13.2188C55.3958 12.9271 55.8646 12.7812 56.4062 12.7812L59.3438 12.9062L63.0938 12.625C64.6562 12.625 65.4375 13.0104 65.4375 13.7812C65.4375 14.1562 65.0938 14.4167 64.4062 14.5625C63.7188 14.6875 63.1354 14.8021 62.6562 14.9062C62.1771 15.0104 61.7292 15.1667 61.3125 15.375C60.3542 15.8958 59.875 16.7604 59.875 17.9688L61.4688 48.5625C61.6354 51.25 62.6458 52.7708 64.5 53.125C65.0208 53.2083 65.5312 53.25 66.0312 53.25C66.9271 53.25 67.375 53.625 67.375 54.375C67.375 55.1042 66.7188 55.4688 65.4062 55.4688C64.8854 55.4688 64.4375 55.4375 64.0625 55.375C63.6875 55.3333 63.3125 55.2917 62.9375 55.25C61.8125 55.0833 60.7917 55 59.875 55L53.2188 55.4688C51.8646 55.4688 51.1875 55.0833 51.1875 54.3125C51.1875 53.6667 51.6771 53.3438 52.6562 53.3438C53.6354 53.3438 54.3438 53.2708 54.7812 53.125C55.2396 52.9583 55.5729 52.7083 55.7812 52.375C56.0729 51.875 56.2188 50.6979 56.2188 48.8438V45.9062C56.2188 44.4896 56.1146 41.6146 55.9062 37.2812C55.6979 32.9479 55.5521 29.8542 55.4688 28C55.3021 24.0833 55.1458 21.1146 55 19.0938L40.2188 52.9688C39.6771 54.1979 39.1875 54.8125 38.75 54.8125C38.4583 54.8125 38.2083 54.6667 38 54.375C37.8125 54.0625 37.5521 53.5729 37.2188 52.9062L22.0938 21.75C21.3021 32.3542 20.9062 42.0521 20.9062 50.8438C20.9062 52.5521 22.2917 53.4062 25.0625 53.4062C25.8125 53.4062 26.1875 53.7083 26.1875 54.3125C26.1875 55.0833 25.5104 55.4688 24.1562 55.4688L19.0938 55C18.0312 55 17.0312 55.0729 16.0938 55.2188C15.1562 55.3854 14.4583 55.4688 14 55.4688ZM55.9375 16.9375L55.9688 16.9062L55.9375 16.9375ZM77.0312 55.7812C75.9271 55.7812 75.0625 55.4479 74.4375 54.7812C73.8125 54.0938 73.5 53.3646 73.5 52.5938C73.5 51.8021 73.5938 51.1979 73.7812 50.7812C73.9896 50.3438 74.2708 49.9688 74.625 49.6562C75.3333 49.0104 76.1979 48.6875 77.2188 48.6875C78.2604 48.6875 79.0938 49.0208 79.7188 49.6875C80.3646 50.3542 80.6875 51.0625 80.6875 51.8125C80.6875 52.5625 80.6042 53.1562 80.4375 53.5938C80.2708 54.0104 80.0208 54.3854 79.6875 54.7188C79.0208 55.4271 78.1354 55.7812 77.0312 55.7812Z" fill="black"/>
</g>
<defs>
<clipPath id="clip0">
<rect width="98" height="61" fill="white"/>
</clipPath>
</defs>
</svg>
