<svg width="100" height="97" viewBox="0 0 100 97" fill="none" xmlns="http://www.w3.org/2000/svg">
<path d="M84.234 1.95312C84.234 0.874412 83.3594 0 82.2809 0H23.9465C19.4361 0 15.7664 3.66952 15.7664 8.18006V78.5442C15.7664 78.5518 15.7658 78.5592 15.7658 78.5668V85.659C15.7658 90.0524 19.3402 93.6266 23.7336 93.6266H26.4638V98.0467C26.4638 98.8451 26.9498 99.5631 27.691 99.8599C28.4326 100.157 29.2795 99.9725 29.8304 99.3945L34.4931 94.5041L39.1558 99.3945C39.5318 99.7889 40.0456 100 40.5697 100C40.8136 100 41.0599 99.9543 41.2952 99.8599C42.0365 99.5631 42.5224 98.8451 42.5224 98.0467V93.6266H82.2807C83.3592 93.6266 84.2338 92.7522 84.2338 91.6734V1.95312H84.234ZM23.9465 3.90624H80.3278V70.3881H23.9447C22.3801 70.3881 20.917 70.8305 19.6728 71.5958V8.18006C19.6726 5.82343 21.59 3.90624 23.9465 3.90624V3.90624ZM38.6163 93.168L35.9068 90.3262C35.5382 89.9397 35.0273 89.7209 34.4933 89.7209C33.9593 89.7209 33.4482 89.9397 33.0798 90.3262L30.3703 93.168V85.6408H38.6165V91.6734V93.168H38.6163ZM42.5226 89.7203V85.6408H43.3718C44.4503 85.6408 45.3249 84.7664 45.3249 83.6877C45.3249 82.609 44.4503 81.7346 43.3718 81.7346H25.8101C24.7316 81.7346 23.857 82.609 23.857 83.6877C23.857 84.7664 24.7316 85.6408 25.8101 85.6408H26.4632V89.7203H23.7338C21.4941 89.7203 19.6722 87.8985 19.6722 85.659V78.5819C19.6722 78.578 19.6728 78.5745 19.6728 78.5705C19.6728 76.2139 21.59 74.2967 23.9467 74.2967H80.328V78.1764H63.3645C62.286 78.1764 61.4114 79.0508 61.4114 80.1295C61.4114 81.2082 62.286 82.0826 63.3645 82.0826H80.328V89.7201H42.5226V89.7203Z" fill="#0B6FA7"/>
<path d="M68.6723 52.1508H34.0598C32.9813 52.1508 32.1067 53.0252 32.1067 54.1039C32.1067 55.1826 32.9813 56.057 34.0598 56.057H68.6725C69.751 56.057 70.6256 55.1826 70.6256 54.1039C70.6256 53.0252 69.751 52.1508 68.6723 52.1508Z" fill="#0B6FA7"/>
<path d="M68.6723 60.5518H34.0598C32.9813 60.5518 32.1067 61.4262 32.1067 62.5049C32.1067 63.5836 32.9813 64.458 34.0598 64.458H68.6725C69.751 64.458 70.6256 63.5836 70.6256 62.5049C70.6256 61.4262 69.751 60.5518 68.6723 60.5518Z" fill="#0B6FA7"/>
<path d="M56.3113 79.3828C55.991 78.6137 55.1961 78.1205 54.3639 78.1826C53.5576 78.2428 52.8607 78.8086 52.633 79.583C52.1484 81.2311 53.9758 82.667 55.4691 81.8283C56.3166 81.3524 56.685 80.2797 56.3113 79.3828Z" fill="#0B6FA7"/>
<path d="M28.6405 30.2375L41.7711 38.1168C42.0858 38.3057 42.4323 38.3955 42.7742 38.3955C43.4375 38.3955 44.0848 38.0574 44.4508 37.4471C45.0059 36.5221 44.7061 35.3225 43.7811 34.7674L43.5473 34.6271L44.8254 32.4973L60.1799 41.7107C59.6493 42.6107 59.9196 43.7762 60.8067 44.3449C61.133 44.5543 61.4981 44.6541 61.859 44.6541C62.5024 44.6541 63.1323 44.3367 63.5051 43.7549L63.5278 43.7195L65.0504 44.6332C65.9889 45.1963 67.0233 45.4643 68.0454 45.4641C70.0303 45.4641 71.9686 44.4531 73.0625 42.6307C73.8649 41.2932 74.0987 39.7232 73.7204 38.21C73.342 36.6967 72.3973 35.4213 71.0598 34.6187L69.794 33.8592C70.102 33.0187 69.7997 32.048 69.0147 31.5447C68.1959 31.0197 67.1352 31.1848 66.5073 31.8869L50.835 22.4828L52.0176 20.5119L52.2514 20.6521C52.5661 20.841 52.9125 20.9309 53.2545 20.9309C53.9178 20.9309 54.5651 20.5928 54.9313 19.9824C55.4862 19.0574 55.1864 17.8578 54.2614 17.3027L41.1305 9.42343C40.2055 8.86836 39.0057 9.16836 38.4506 10.0932C37.8957 11.0182 38.1955 12.2178 39.1205 12.7728L39.428 12.9572L30.958 27.0723L30.6508 26.8879C29.7258 26.3328 28.526 26.6328 27.9711 27.5576C27.4157 28.4828 27.7155 29.6826 28.6405 30.2375V30.2375ZM48.8282 25.8344L64.3741 35.1627L62.2862 38.4189L46.8387 29.1498L48.8282 25.8344ZM69.7127 40.6207C69.1639 41.535 67.9739 41.832 67.0602 41.2838L65.6371 40.4299L67.725 37.1736L69.0495 37.9684C69.4924 38.234 69.8051 38.6562 69.9303 39.1572C70.0555 39.6582 69.9782 40.1779 69.7127 40.6207ZM42.777 14.9674L48.6678 18.5021L40.1977 32.6172L40.0293 32.5162L34.3069 29.0824L42.777 14.9674Z" fill="#0B6FA7"/>
</svg>
