<svg width="100" height="100" viewBox="0 0 100 100" fill="none" xmlns="http://www.w3.org/2000/svg">
<g clip-path="url(#clip0)">
<path d="M98.0463 85.5465H89.4526V69.7569C89.4526 68.6784 88.5781 67.8038 87.4994 67.8038C86.4207 67.8038 85.5463 68.6784 85.5463 69.7569V85.5465H42.5749C41.4962 85.5465 40.6218 86.4211 40.6218 87.4996C40.6218 87.5709 40.6245 87.8297 40.6245 87.8903C40.6245 92.4135 36.9447 96.0934 32.4214 96.0934C27.8982 96.0934 24.2183 92.4135 24.2183 87.8903V62.6952C24.2183 61.6167 23.3439 60.7421 22.2652 60.7421C21.1865 60.7421 20.3121 61.6167 20.3121 62.6952V87.8903C20.3121 94.5674 25.7443 99.9996 32.4214 99.9996H87.4994C94.392 99.9996 99.9994 94.3922 99.9994 87.4996C99.9994 86.4211 99.125 85.5465 98.0463 85.5465ZM87.4994 96.0934H41.3189C42.9773 94.2959 44.097 91.9971 44.4265 89.4527H95.8693C94.9828 93.2537 91.5666 96.0934 87.4994 96.0934Z" fill="#0B6FA7"/>
<path d="M23.6466 52.9159C23.2833 52.5526 22.7794 52.3437 22.2658 52.3437C21.7521 52.3437 21.2482 52.5524 20.8849 52.9159C20.5216 53.2792 20.3127 53.7831 20.3127 54.2968C20.3127 54.8105 20.5216 55.3144 20.8849 55.6774C21.2482 56.0409 21.7521 56.2499 22.2658 56.2499C22.7794 56.2499 23.2833 56.0409 23.6466 55.6774C24.0099 55.3144 24.2189 54.8105 24.2189 54.2968C24.2189 53.7831 24.0099 53.2792 23.6466 52.9159Z" fill="#0B6FA7"/>
<path d="M99.8764 49.3489C99.877 49.3487 99.8774 49.3483 99.8779 49.3481L91.862 27.7392H94.3354C95.4141 27.7392 96.2885 26.8646 96.2885 25.786C96.2885 24.7075 95.4141 23.8329 94.3354 23.8329H89.4526V12.5003C89.4526 5.60776 83.8452 0.000549316 76.9526 0.000549316H13.7562C13.5953 0.000549316 12.5076 0.000549316 12.1092 0.000549316C5.43203 0.000549316 -0.000183105 5.43277 -0.000183105 12.1099C-0.000183105 13.1884 0.874229 14.063 1.95294 14.063H20.3121V46.094C20.3121 47.1725 21.1865 48.0471 22.2652 48.0471C23.3439 48.0471 24.2183 47.1725 24.2183 46.094C24.2183 46.094 24.2183 12.1759 24.2183 12.1099C24.2183 8.9476 22.9986 6.06577 21.0064 3.90679H76.9526C81.6913 3.90679 85.5463 7.76186 85.5463 12.5005V23.8331H69.9811C69.2762 21.7275 67.2866 20.2052 64.9468 20.2052H64.7403C62.4005 20.2052 60.4108 21.7275 59.706 23.8331H35.3521C34.2734 23.8331 33.399 24.7077 33.399 25.7862C33.399 26.8648 34.2734 27.7394 35.3521 27.7394H37.8261L29.8101 49.3483C29.8107 49.3485 29.8111 49.3489 29.8117 49.3491C29.7332 49.5606 29.6882 49.7885 29.6882 50.0274V50.2958C29.6882 56.1833 34.4781 60.9731 40.3656 60.9731H40.9023C46.7898 60.9731 51.5796 56.1833 51.5796 50.2958V50.0274C51.5796 49.7881 51.5345 49.56 51.4558 49.3483C51.4564 49.3483 51.4569 49.3483 51.4575 49.3483L43.4413 27.739H59.4323V69.7629H57.5235C56.4448 69.7629 55.5704 70.6375 55.5704 71.716C55.5704 72.7945 56.4448 73.6692 57.5235 73.6692H72.1643C73.243 73.6692 74.1174 72.7945 74.1174 71.716C74.1174 70.6375 73.243 69.7629 72.1643 69.7629H70.2555V44.5964C70.2555 43.5178 69.3811 42.6432 68.3024 42.6432C67.2237 42.6432 66.3493 43.5178 66.3493 44.5964V69.7631H63.3384V30.839C63.7852 30.9614 64.255 31.0282 64.7403 31.0282H64.9468C67.1593 31.0282 69.0591 29.6673 69.8553 27.739H86.2262C86.2315 27.7435 86.2362 27.7485 86.2415 27.7528L78.2305 49.3477C78.2311 49.3481 78.2315 49.3485 78.2319 49.3489C78.1534 49.5604 78.1085 49.7881 78.1085 50.027V50.2954C78.1085 56.1829 82.8983 60.9727 88.7858 60.9727H89.3225C95.21 60.9727 99.9998 56.1829 99.9998 50.2954V50.027C99.9998 49.7883 99.9549 49.5606 99.8764 49.3489ZM4.14317 10.1566C5.02188 6.57358 8.25918 3.9066 12.1094 3.9066C15.9596 3.9066 19.1969 6.57358 20.0756 10.1566H4.14317ZM40.9019 57.0667H40.3652C37.2128 57.0667 34.557 54.9016 33.8062 51.9803H47.4609C46.7101 54.9016 44.0542 57.0667 40.9019 57.0667ZM46.8185 48.0743H34.4488L40.6335 31.4019L46.8185 48.0743ZM66.3491 25.7198C66.3491 26.4931 65.72 27.1222 64.9468 27.1222H64.7403C63.9671 27.1222 63.338 26.4931 63.338 25.7198V25.5134C63.338 24.7401 63.9671 24.111 64.7403 24.111H64.9468C65.72 24.111 66.3491 24.7401 66.3491 25.5134V25.7198ZM89.0543 31.4017L95.2391 48.0741H82.8694L89.0543 31.4017ZM89.3225 57.0667H88.7858C85.6334 57.0667 82.9776 54.9016 82.2268 51.9803H95.8813C95.1309 54.9016 92.4748 57.0667 89.3225 57.0667Z" fill="#0B6FA7"/>
<path d="M69.6833 35.5334C69.32 35.1701 68.8161 34.9611 68.3024 34.9611C67.7887 34.9611 67.2848 35.1701 66.9216 35.5334C66.5583 35.8966 66.3493 36.4005 66.3493 36.9142C66.3493 37.4279 66.5583 37.9318 66.9216 38.2949C67.2848 38.6581 67.7887 38.8673 68.3024 38.8673C68.8161 38.8673 69.32 38.6583 69.6833 38.2949C70.0466 37.9318 70.2555 37.4279 70.2555 36.9142C70.2555 36.4005 70.0466 35.8966 69.6833 35.5334Z" fill="#0B6FA7"/>
</g>
<defs>
<clipPath id="clip0">
<rect width="100" height="100" fill="white"/>
</clipPath>
</defs>
</svg>
