<svg width="100" height="100" viewBox="0 0 100 100" fill="none" xmlns="http://www.w3.org/2000/svg">
<g clip-path="url(#clip0)">
<path d="M93.1084 23.3889C91.5808 23.5211 90.2119 22.3455 90.2205 20.792C90.2205 18.9129 88.6918 17.3844 86.8129 17.3844H64.1293C62.2504 17.3844 60.7217 18.9131 60.7217 20.792C60.7301 22.3457 59.3613 23.5213 57.8338 23.3889C55.9549 23.3889 54.4262 24.9176 54.4262 26.7965V52.1471C54.4262 59.2418 57.9568 65.817 63.8707 69.7361L70.4578 74.1014C71.5533 74.8273 72.7642 75.2906 74.0074 75.4943V95.8691C74.0074 96.5314 73.4685 97.0703 72.8062 97.0703H20.5631V87.6244C20.5631 84.7816 18.2502 82.4689 15.4076 82.4689H6.41347V4.13086C6.41347 3.46855 6.95234 2.92969 7.61464 2.92969H72.8058C73.4683 2.92969 74.007 3.46855 74.007 4.13086V12.0211C74.007 12.8301 74.6627 13.4859 75.4719 13.4859C76.281 13.4859 76.9367 12.8301 76.9367 12.0211V4.13086C76.9367 1.85312 75.0836 0 72.8058 0H7.61484C5.3371 0 3.48398 1.85312 3.48398 4.13086V83.9336C3.4871 84.3115 3.63456 84.6805 3.89687 84.9529L18.0453 99.5545C18.3209 99.8406 18.7041 99.9986 19.0973 100H72.806C75.0838 100 76.9369 98.1469 76.9369 95.8691V75.4941C78.1793 75.2902 79.3894 74.8271 80.4844 74.1016L87.0715 69.7363C92.9853 65.8174 96.516 59.242 96.516 52.1473V26.7967C96.5162 24.9176 94.9873 23.3889 93.1084 23.3889V23.3889ZM15.4074 85.3984C16.6348 85.3984 17.6332 86.3969 17.6332 87.6242V94.9182L8.40878 85.3984H15.4074ZM93.5865 52.1473C93.5865 58.2568 90.5461 63.9193 85.4533 67.2941L78.8662 71.6594C77.8443 72.3365 76.6746 72.6771 75.5035 72.6832C75.4929 72.683 75.4826 72.6816 75.472 72.6816C75.4611 72.6816 75.4506 72.683 75.4396 72.6832C74.2681 72.6771 73.098 72.3365 72.076 71.6592L65.4889 67.2939C60.3961 63.9189 57.3555 58.2566 57.3555 52.1471V26.7967C57.3498 26.3777 57.7859 26.2762 58.1246 26.3187C61.1721 26.3187 63.6512 23.8395 63.6512 20.7922C63.6512 20.5285 63.8656 20.3143 64.1291 20.3143H86.8127C87.0763 20.3143 87.2906 20.5287 87.2906 20.7922C87.2906 23.8396 89.7699 26.3187 92.8174 26.3187C93.1558 26.276 93.592 26.3781 93.5863 26.7967V52.1473H93.5865Z" fill="#0B6FA7"/>
<path d="M90.081 28.38C87.9133 27.5952 86.1791 25.9167 85.3234 23.7743C85.101 23.2179 84.5625 22.853 83.9631 22.853H66.9793C66.3803 22.853 65.8414 23.2179 65.6189 23.7743C64.7629 25.9167 63.0287 27.5954 60.8613 28.3802C60.2812 28.5901 59.8951 29.1409 59.8951 29.7575V52.1474C59.8951 57.4032 62.5107 62.2743 66.8918 65.1778L73.4787 69.5429C74.0711 69.9356 74.7603 70.1433 75.4713 70.1433C76.182 70.1433 76.8711 69.9356 77.4639 69.5431L84.0506 65.1778C88.432 62.2743 91.0474 57.4032 91.0474 52.1474V40.8144C91.0474 40.0054 90.3918 39.3495 89.5826 39.3495C88.7734 39.3495 88.1177 40.0054 88.1177 40.8144V52.147C88.1177 56.4179 85.9924 60.3761 82.4322 62.7353L75.8455 67.1003C75.6226 67.2479 75.3199 67.2479 75.0971 67.1003L68.5102 62.7353C64.95 60.3759 62.8248 56.4177 62.8248 52.147V30.7319C65.0205 29.6911 66.8156 27.9483 67.9215 25.7827H83.0213C84.1271 27.9485 85.9219 29.6913 88.1179 30.7319V34.0298C88.1179 34.8388 88.7736 35.4946 89.5828 35.4946C90.392 35.4946 91.0476 34.8388 91.0476 34.0298V29.7573C91.0474 29.1405 90.6611 28.5897 90.081 28.38V28.38Z" fill="#0B6FA7"/>
<path d="M48.6088 15.5436C49.418 15.5436 50.0736 14.8877 50.0736 14.0787C50.0736 13.2698 49.418 12.6139 48.6088 12.6139H30.6906C29.8814 12.6139 29.2258 13.2698 29.2258 14.0787C29.2258 14.8877 29.8814 15.5436 30.6906 15.5436H48.6088Z" fill="#0B6FA7"/>
<path d="M14.6928 32.6484C14.6928 33.4574 15.3484 34.1133 16.1576 34.1133H49.1252C49.9344 34.1133 50.59 33.4574 50.59 32.6484C50.59 31.8395 49.9344 31.1836 49.1252 31.1836H16.1576C15.3484 31.1836 14.6928 31.8395 14.6928 32.6484Z" fill="#0B6FA7"/>
<path d="M16.1576 42.4746H49.1252C49.9344 42.4746 50.59 41.8188 50.59 41.0098C50.59 40.2008 49.9344 39.5449 49.1252 39.5449H16.1576C15.3484 39.5449 14.6928 40.2008 14.6928 41.0098C14.6928 41.8188 15.3484 42.4746 16.1576 42.4746Z" fill="#0B6FA7"/>
<path d="M50.59 49.3691C50.59 48.5602 49.9344 47.9043 49.1252 47.9043H16.1576C15.3484 47.9043 14.6928 48.5602 14.6928 49.3691C14.6928 50.1781 15.3484 50.834 16.1576 50.834H49.1252C49.9344 50.834 50.59 50.1781 50.59 49.3691V49.3691Z" fill="#0B6FA7"/>
<path d="M38.8346 57.7303C38.8346 56.9214 38.1789 56.2655 37.3697 56.2655H16.1576C15.3484 56.2655 14.6928 56.9214 14.6928 57.7303C14.6928 58.5393 15.3484 59.1952 16.1576 59.1952H37.3697C38.1789 59.1952 38.8346 58.5393 38.8346 57.7303Z" fill="#0B6FA7"/>
<path d="M44.493 59.1952H49.1545C49.9637 59.1952 50.6193 58.5393 50.6193 57.7303C50.6193 56.9214 49.9637 56.2655 49.1545 56.2655H44.493C43.6838 56.2655 43.0281 56.9214 43.0281 57.7303C43.0281 58.5393 43.684 59.1952 44.493 59.1952Z" fill="#0B6FA7"/>
<path d="M44.968 86.4187C44.968 87.2277 45.6236 87.8835 46.4328 87.8835H63.6918C64.501 87.8835 65.1566 87.2277 65.1566 86.4187C65.1566 85.6097 64.501 84.9539 63.6918 84.9539H46.4328C45.6236 84.9539 44.968 85.6097 44.968 86.4187Z" fill="#0B6FA7"/>
<path d="M53.1449 78.1332H46.4328C45.6236 78.1332 44.968 78.789 44.968 79.598C44.968 80.407 45.6236 81.0629 46.4328 81.0629H53.1449C53.9541 81.0629 54.6097 80.407 54.6097 79.598C54.6097 78.789 53.9541 78.1332 53.1449 78.1332Z" fill="#0B6FA7"/>
<path d="M81.4713 39.3678C81.4713 36.0594 78.7797 33.3678 75.4711 33.3678C72.1625 33.3678 69.4709 36.0594 69.4709 39.3678C69.4709 42.1711 71.4035 44.5309 74.0062 45.1863V58.1633C74.0062 58.9723 74.6619 59.6281 75.4711 59.6281H77.8607C78.6699 59.6281 79.3256 58.9723 79.3256 58.1633C79.3256 57.3543 78.6699 56.6984 77.8607 56.6984H76.9359V54.5774H77.8607C78.6699 54.5774 79.3256 53.9215 79.3256 53.1125C79.3256 52.3035 78.6699 51.6477 77.8607 51.6477H76.9359V45.1863C79.5387 44.5309 81.4713 42.1711 81.4713 39.3678ZM72.4008 39.3678C72.4008 37.6748 73.7783 36.2975 75.4713 36.2975C77.1642 36.2975 78.5418 37.6748 78.5418 39.3678C78.5418 41.0608 77.1642 42.4383 75.4713 42.4383C73.7783 42.4383 72.4008 41.061 72.4008 39.3678Z" fill="#0B6FA7"/>
<path d="M19.3846 65.6626C16.5816 65.6626 14.3016 67.9429 14.3016 70.7456C14.3016 73.5483 16.5818 75.8288 19.3846 75.8288H31.2221C34.025 75.8288 36.3051 73.5485 36.3051 70.7456C36.3051 67.9427 34.0248 65.6626 31.2221 65.6626H19.3846ZM33.3754 70.7456C33.3754 71.9331 32.4094 72.8991 31.2221 72.8991H19.3846C18.1973 72.8991 17.2312 71.9331 17.2312 70.7456C17.2312 69.5581 18.1973 68.5923 19.3846 68.5923H31.2221C32.4094 68.5923 33.3754 69.5583 33.3754 70.7456Z" fill="#0B6FA7"/>
</g>
<defs>
<clipPath id="clip0">
<rect width="100" height="100" fill="white"/>
</clipPath>
</defs>
</svg>
