<svg width="100" height="100" viewBox="0 0 100 100" fill="none" xmlns="http://www.w3.org/2000/svg">
<path d="M98.4785 20.5885C97.6059 15.159 94.9307 10.1667 90.8764 6.44322C86.5496 2.46959 80.9065 0.185214 74.9866 0.0109956C69.6667 -0.145645 64.5577 1.37389 60.2124 4.40416C60.197 4.4149 60.1819 4.42603 60.1669 4.43716C59.4952 4.90181 58.7235 5.21275 57.9339 5.33736L46.3382 7.15611C43.0896 7.66705 40.7318 10.4231 40.7318 13.7096V19.485C39.8915 19.0122 38.923 18.7411 37.8921 18.7411C36.4345 18.7411 35.1015 19.2819 34.0804 20.1717C33.0595 19.2819 31.7263 18.7411 30.2687 18.7411C27.0953 18.7411 24.5095 21.2989 24.4613 24.4608C21.2992 24.5092 18.7416 27.095 18.7416 30.2682C18.7416 31.7258 19.2824 33.0586 20.1722 34.0799C19.2824 35.101 18.7416 36.434 18.7416 37.8916C18.7416 38.9225 19.0127 39.8909 19.4855 40.7313H13.7097C10.4232 40.7313 7.66698 43.0891 7.15605 46.3383L5.3375 57.9321C5.21269 58.7235 4.90117 59.4955 4.43633 60.1674C4.42519 60.1821 4.41445 60.1969 4.4041 60.2119C1.37403 64.558 -0.145305 69.6668 0.0109446 74.9867C0.185163 80.9067 2.46973 86.5496 6.44316 90.8764C10.1666 94.9307 15.1588 97.6059 20.5882 98.4785C21.6398 99.4236 23.0291 100 24.5507 100C26.0744 100 27.4654 99.4225 28.5173 98.475C33.3404 97.6943 37.7613 95.517 41.3552 92.1414C41.953 91.5799 41.9825 90.64 41.421 90.0422C40.8597 89.4441 39.9197 89.4148 39.3216 89.9764C36.7609 92.3814 33.7224 94.0928 30.4068 95.0207C30.4574 94.7098 30.4845 94.3912 30.4845 94.0662C30.4845 92.6988 30.0183 91.4391 29.2384 90.4346C36.2589 88.3984 41.4077 81.9141 41.4077 74.2457C41.4077 68.3301 38.3421 63.1201 33.7191 60.1112L40.921 59.9158C43.5089 63.3949 46.1308 69.1381 46.1308 74.2453C46.1308 78.5727 44.8548 82.7467 42.4405 86.3166C41.981 86.9961 42.1593 87.9193 42.8388 88.3787C43.0939 88.5512 43.3831 88.6338 43.6694 88.6338C44.1458 88.6338 44.614 88.4049 44.9009 87.9805C47.6485 83.9176 49.1011 79.168 49.1011 74.2453C49.1011 68.4953 46.3319 62.2637 43.406 58.2795C43.5894 57.7619 43.6485 57.2012 43.5611 56.6387L41.9454 46.3379C41.4345 43.0893 38.6782 40.7315 35.3917 40.7315H29.6165C30.0894 39.8912 30.3605 38.9229 30.3605 37.8918C30.3605 36.4342 29.8197 35.1014 28.9298 34.0801C29.8013 33.0801 30.3365 31.7809 30.3583 30.3586C31.7808 30.3368 33.08 29.8016 34.0798 28.9301C35.1007 29.82 36.4339 30.3608 37.8915 30.3608C38.9224 30.3608 39.8907 30.0897 40.7312 29.6168V35.392C40.7312 38.6786 43.089 41.4348 46.3382 41.9457L56.6397 43.5616C56.8153 43.5889 56.9907 43.6024 57.1649 43.6024C57.5487 43.6024 57.9251 43.5342 58.2811 43.4078C62.2657 46.3332 68.4958 49.1014 74.2448 49.1014C86.3129 49.1014 96.5574 40.3209 98.4727 28.5196C99.4215 27.4672 100 26.0756 100 24.5508C99.9998 23.0293 99.4236 21.6401 98.4785 20.5885ZM24.5509 27.4289C24.8041 27.4289 25.048 27.4655 25.2816 27.5278C25.7755 28.352 26.4675 29.044 27.2917 29.5379C27.354 29.7715 27.3906 30.0155 27.3906 30.2686C27.3906 31.1149 27.0164 31.8739 26.4271 32.3948C25.8382 32.1932 25.2076 32.0823 24.5513 32.0823C23.8951 32.0823 23.2644 32.1934 22.6755 32.3948C22.0863 31.8743 21.7121 31.1151 21.7121 30.2686C21.7113 28.7028 22.9851 27.4289 24.5509 27.4289ZM22.6748 35.7659C23.2636 35.9674 23.8943 36.0784 24.5505 36.0784C25.2068 36.0784 25.8375 35.9672 26.4263 35.7659C27.0156 36.2864 27.3898 37.0455 27.3898 37.892C27.3898 39.4578 26.116 40.7317 24.5502 40.7317C22.9843 40.7317 21.7109 39.4578 21.7109 37.892C21.7113 37.0455 22.0855 36.2866 22.6748 35.7659ZM27.0253 95.6928C26.5093 95.8117 26.1095 96.1945 25.9509 96.6771C25.5337 96.9018 25.057 97.0299 24.5509 97.0299C22.917 97.0299 21.5875 95.7004 21.5875 94.0664C21.5875 92.4324 22.917 91.1029 24.5509 91.1029C26.1849 91.1029 27.5142 92.4324 27.5142 94.0664C27.5142 94.6668 27.3333 95.2252 27.0253 95.6928ZM38.4376 74.2459C38.4376 81.9031 32.2081 88.1326 24.5509 88.1326C16.8937 88.1326 10.6642 81.9031 10.6642 74.2459C10.6642 66.5887 16.8937 60.3592 24.5509 60.3592C32.2081 60.3592 38.4376 66.5887 38.4376 74.2459ZM35.3919 43.7018C37.2068 43.7018 38.729 45.0045 39.0111 46.7989L40.6034 56.9533L24.5103 57.3897V57.3901C15.234 57.4121 7.69355 64.9645 7.69355 74.2461C7.69355 81.9145 12.8422 88.3986 19.8629 90.435C19.0828 91.4395 18.6168 92.6994 18.6168 94.0666C18.6168 94.3928 18.6443 94.7123 18.6951 95.0242C14.849 93.9523 11.3527 91.8316 8.63085 88.8676C5.14004 85.0666 3.13301 80.1061 2.97988 74.8996C2.84277 70.2313 4.17187 65.7494 6.82382 61.9356C6.83202 61.9246 6.83964 61.9137 6.84745 61.9028L6.84765 61.903C7.58241 60.8557 8.07499 59.6428 8.27187 58.394L10.0904 46.7996C10.3726 45.0047 11.8947 43.702 13.7095 43.702H35.3919V43.7018ZM32.3947 26.4266C31.874 27.0163 31.1148 27.3905 30.2685 27.3905C30.0154 27.3905 29.7714 27.3539 29.5378 27.2916C29.0439 26.4674 28.3519 25.7754 27.5277 25.2815C27.4654 25.0479 27.4289 24.8039 27.4289 24.5508C27.4289 22.985 28.7027 21.7112 30.2685 21.7112C31.115 21.7112 31.8738 22.0854 32.3947 22.6747C32.1931 23.2635 32.0822 23.8942 32.0822 24.5504C32.0822 25.2073 32.1933 25.8377 32.3947 26.4266ZM37.8917 27.3907C37.0452 27.3907 36.2865 27.0165 35.7656 26.4272C35.9671 25.8383 36.0781 25.2077 36.0781 24.5514C36.0781 23.895 35.9669 23.2645 35.7656 22.6756C36.2861 22.0864 37.0452 21.7122 37.8917 21.7122C39.4575 21.7122 40.7314 22.986 40.7314 24.5518C40.7314 26.117 39.4575 27.3907 37.8917 27.3907ZM57.3897 24.511H57.3893L56.9532 40.6039L46.7993 39.0116C45.0044 38.7293 43.7017 37.2073 43.7017 35.3922V13.7098C43.7017 11.8948 45.0044 10.3727 46.7987 10.0907L58.395 8.27193C59.6425 8.07525 60.8555 7.58306 61.9026 6.8481L61.9024 6.84771C61.9141 6.83951 61.9255 6.8313 61.9368 6.82291C65.7503 4.17193 70.2293 2.84185 74.8993 2.98013C80.1055 3.13345 85.0662 5.14029 88.8672 8.6313C91.8313 11.3536 93.9522 14.8497 95.0238 18.6957C94.7119 18.6448 94.3922 18.6174 94.0662 18.6174C92.6988 18.6174 91.4391 19.0836 90.4346 19.8635C88.3985 12.843 81.9141 7.69419 74.2458 7.69419C64.9643 7.69419 57.4118 15.2344 57.3897 24.511ZM74.2452 46.1311C69.1383 46.1311 63.3948 43.5092 59.9157 40.9211L60.1106 33.7289C61.5884 36.0057 63.6163 37.9334 66.0727 39.2975C66.7899 39.6957 67.694 39.4371 68.0919 38.7202C68.4901 38.0032 68.2317 37.0991 67.5145 36.7008C63.1007 34.2496 60.3587 29.5944 60.3587 24.5512C60.3587 16.8942 66.5882 10.6645 74.2454 10.6645C81.9026 10.6645 88.132 16.894 88.132 24.5512C88.132 32.2084 81.9026 38.4379 74.2454 38.4379C73.4198 38.4379 72.5928 38.3651 71.7877 38.2213C70.9817 38.0772 70.209 38.6151 70.0647 39.4225C69.9204 40.2299 70.4585 41.0012 71.2659 41.1455C72.2428 41.3198 73.2454 41.4082 74.2454 41.4082C81.9137 41.4082 88.3979 36.2596 90.4342 29.2389C91.4387 30.019 92.6984 30.485 94.0658 30.485C94.3906 30.485 94.7088 30.4577 95.0195 30.4075C92.4504 39.5655 84.0301 46.1311 74.2452 46.1311ZM94.066 27.5145C92.432 27.5145 91.1026 26.185 91.1026 24.551C91.1026 22.917 92.432 21.5877 94.066 21.5877C95.7 21.5877 97.0295 22.917 97.0295 24.551C97.0295 26.185 95.7002 27.5145 94.066 27.5145Z" fill="#0B6FA7"/>
</svg>
