<svg width="100" height="100" viewBox="0 0 100 100" fill="none" xmlns="http://www.w3.org/2000/svg">
<path d="M54.5898 100C55.6685 100 56.543 99.1256 56.543 98.0469C56.543 96.9682 55.6685 96.0938 54.5898 96.0938C53.5112 96.0938 52.6367 96.9682 52.6367 98.0469C52.6367 99.1256 53.5112 100 54.5898 100Z" fill="#0B6FA7"/>
<path d="M88.8807 0.572266C88.5176 0.208984 88.0625 0 87.5488 0C87.5488 0 21.5539 0.00078125 21.5518 0.000976562C21.0844 0.00253906 20.6354 0.170703 20.2723 0.493359L11.3916 8.30586C10.9746 8.67637 10.6445 9.20781 10.6445 9.76562V90.2344C10.6445 90.7922 10.9809 91.3236 11.3977 91.6941L20.2355 99.5066C20.6 99.8307 21.1002 100 21.5695 100H21.5818H45.8006C46.8768 100 47.7537 99.123 47.7537 98.0469C47.7537 96.9707 46.8768 96.0938 45.8006 96.0938H23.3396V3.90625H69.2102L85.449 20.3404V79.6598L69.2104 96.0938H63.3789C62.3027 96.0938 61.4258 96.9707 61.4258 98.0469C61.4258 99.123 62.3027 100 63.3789 100H87.5977C88.1113 100 88.5176 99.791 88.8807 99.4277C89.2439 99.0645 89.3555 98.5605 89.3555 98.0469V1.95312C89.3555 1.43945 89.2441 0.935547 88.8807 0.572266V0.572266ZM19.4336 93.6975L14.5508 89.3572V10.6428L19.4336 6.30254V93.6975ZM85.4492 96.0938H74.735L85.4492 85.184V96.0938ZM85.4492 14.816L74.735 3.90625H85.4492V14.816Z" fill="#0B6FA7"/>
<path d="M35.0586 25.3906C35.0586 26.4693 35.9332 27.3438 37.0117 27.3438H72.168C73.2465 27.3438 74.1211 26.4693 74.1211 25.3906C74.1211 24.3119 73.2465 23.4375 72.168 23.4375H37.0117C35.9332 23.4375 35.0586 24.3119 35.0586 25.3906Z" fill="#0B6FA7"/>
<path d="M68.2617 19.5312C69.3402 19.5312 70.2148 18.6568 70.2148 17.5781C70.2148 16.4994 69.3402 15.625 68.2617 15.625H40.918C39.8395 15.625 38.9648 16.4994 38.9648 17.5781C38.9648 18.6568 39.8395 19.5312 40.918 19.5312H68.2617Z" fill="#0B6FA7"/>
<path d="M37.0117 56.6406H72.168C73.2465 56.6406 74.1211 55.7662 74.1211 54.6875C74.1211 53.6088 73.2465 52.7344 72.168 52.7344H37.0117C35.9332 52.7344 35.0586 53.6088 35.0586 54.6875C35.0586 55.7662 35.9332 56.6406 37.0117 56.6406Z" fill="#0B6FA7"/>
<path d="M40.918 64.4531H68.2617C69.3402 64.4531 70.2148 63.5787 70.2148 62.5C70.2148 61.4213 69.3402 60.5469 68.2617 60.5469H40.918C39.8395 60.5469 38.9648 61.4213 38.9648 62.5C38.9648 63.5787 39.8395 64.4531 40.918 64.4531Z" fill="#0B6FA7"/>
<path d="M51.3393 31.25C51.3385 31.25 51.3375 31.25 51.3367 31.25C50.4293 31.251 49.6072 31.782 49.2426 32.6031C49.2357 32.6186 43.6492 46.1287 43.6492 46.1287C43.2371 47.1256 43.7109 48.2678 44.7078 48.6801C45.7047 49.092 46.8467 48.6365 47.2592 47.6398L48.1484 45.5078H54.4873L55.3658 47.6338C55.6756 48.3896 56.4047 48.8379 57.174 48.8377C57.4207 48.8377 57.6715 48.7861 57.9137 48.6867C58.9117 48.2777 59.3896 47.1348 58.9807 46.1367C58.9807 46.1367 53.4422 32.6182 53.434 32.5996C53.0678 31.7803 52.2459 31.25 51.3393 31.25V31.25ZM49.7637 41.6016L51.3324 37.8074L52.8869 41.6016H49.7637Z" fill="#0B6FA7"/>
<path d="M31.1523 31.25C30.0738 31.25 29.1992 32.1244 29.1992 33.2031V46.8635C29.1992 47.8301 29.9832 48.6729 30.9389 48.8166C31.0639 48.8354 35.8709 48.8252 38.1111 48.8166C39.1897 48.8125 40.0801 47.9402 40.0758 46.8615C40.0717 45.7854 39.2172 44.9219 38.142 44.9219C38.1393 44.9219 38.1369 44.9219 38.1342 44.9219C36.6994 44.9219 34.6678 44.91 33.1053 44.9104V33.2031C33.1055 32.1244 32.2309 31.25 31.1523 31.25V31.25Z" fill="#0B6FA7"/>
<path d="M69.6256 31.3546C68.9756 31.5765 68.5197 32.1075 68.3633 32.7273L65.6697 40.5839L63.9611 32.7851C63.7301 31.7314 62.6898 31.0638 61.6352 31.2952C60.5814 31.5261 59.9145 32.5673 60.1453 33.621C60.1453 33.621 63.1482 47.2884 63.1863 47.3849C63.532 48.2632 64.3703 48.828 65.325 48.828H65.343C66.3047 48.821 67.1424 48.2425 67.4771 47.3544C67.484 47.3361 70.2562 39.2509 70.2562 39.2509C70.2562 39.2509 73.023 47.3571 73.0342 47.3851C73.3799 48.2634 74.2182 48.8282 75.1728 48.8282H75.1908C76.1525 48.8212 76.9902 48.2427 77.325 47.3546C77.3578 47.2673 80.3668 33.6489 80.3668 33.6489C80.5988 32.5954 79.9332 31.5534 78.8799 31.3212C77.8277 31.0892 76.7844 31.7546 76.5521 32.8081L74.8383 40.5831L72.1049 32.5728C71.7566 31.5513 70.6465 31.0068 69.6256 31.3546V31.3546Z" fill="#0B6FA7"/>
</svg>
