<svg width="100" height="100" viewBox="0 0 100 100" fill="none" xmlns="http://www.w3.org/2000/svg">
<path d="M94.1162 82.8755V79.4189C94.1162 75.5861 91.6561 72.3185 88.2324 71.108V41.1376H91.1865C92.8045 41.1376 94.1162 39.8259 94.1162 38.208V28.4179C94.1162 27.4033 93.5912 26.4607 92.7283 25.9267L51.5418 0.438428C50.5971 -0.146143 49.4031 -0.146143 48.4584 0.438428L7.27187 25.9267C6.40898 26.4607 5.88398 27.4033 5.88398 28.4179V38.208C5.88398 39.8259 7.1957 41.1376 8.81367 41.1376H11.7676V71.108C8.34395 72.3185 5.88379 75.5859 5.88379 79.4189V82.8755C2.46016 84.0861 0 87.3537 0 91.1865V97.0703C0 98.6882 1.31172 100 2.92969 100H97.0703C98.6883 100 100 98.6882 100 97.0703V91.1865C100 87.3537 97.5398 84.0861 94.1162 82.8755ZM41.1865 41.1376V70.6054H29.3945V41.1376H41.1865ZM52.9541 70.6054H47.0459V41.1376H52.9541V70.6054ZM58.8135 41.1376H70.6055V70.6054H58.8135V41.1376ZM82.373 70.6054H76.4648V41.1376H82.373V70.6054ZM11.7432 30.0503L50 6.37495L88.2568 30.0501V35.2783H11.7432V30.0503ZM23.5352 41.1376V70.6054H17.627V41.1376H23.5352ZM11.7432 79.4189C11.7432 77.79 13.0684 76.4648 14.6973 76.4648H85.3027C86.9316 76.4648 88.2568 77.79 88.2568 79.4189V82.373H11.7432V79.4189ZM94.1406 94.1406H5.85938V91.1865C5.85938 89.5576 7.18457 88.2324 8.81348 88.2324H91.1865C92.8154 88.2324 94.1406 89.5576 94.1406 91.1865V94.1406Z" fill="#0B6FA7"/>
<path d="M50 13.7207C45.1402 13.7207 41.1865 17.6744 41.1865 22.5342C41.1865 27.3939 45.1402 31.3477 50 31.3477C54.8598 31.3477 58.8135 27.3939 58.8135 22.5342C58.8135 17.6744 54.8598 13.7207 50 13.7207ZM50 25.4883C48.3711 25.4883 47.0459 24.1631 47.0459 22.5342C47.0459 20.9053 48.3711 19.5801 50 19.5801C51.6289 19.5801 52.9541 20.9053 52.9541 22.5342C52.9541 24.1631 51.6289 25.4883 50 25.4883Z" fill="#0B6FA7"/>
</svg>
